<svg version="1.0" xmlns="http://www.w3.org/2000/svg"
 width="300.000000pt" height="300.000000pt" viewBox="0 0 300.000000 300.000000"
 preserveAspectRatio="xMidYMid meet">
<g transform="translate(0.000000,300.000000) scale(0.100000,-0.100000)"
fill="#000000" stroke="none">
<path d="M1740 2263 c-30 -12 -176 -97 -204 -120 -73 -60 -295 -143 -383 -143
-36 0 -45 -15 -14 -23 31 -8 72 1 156 34 44 17 109 41 145 54 38 14 81 38 103
59 20 20 47 36 60 36 18 0 19 2 7 11 -11 8 -4 9 29 5 35 -5 46 -3 60 12 18 21
84 39 119 34 12 -2 33 -19 45 -38 12 -18 34 -38 50 -43 15 -6 29 -16 31 -23
23 -85 39 -129 43 -124 3 3 -2 29 -11 57 -20 59 -18 62 47 80 44 12 84 5 144
-24 35 -17 39 -22 28 -34 -8 -7 -12 -20 -9 -28 3 -7 86 -60 185 -116 167 -94
183 -101 223 -97 35 4 50 0 82 -21 53 -37 55 -63 7 -94 -41 -27 -44 -28 -838
-488 l-540 -312 -60 -1 c-54 0 -68 4 -133 43 -39 23 -69 47 -66 52 3 5 11 9
17 8 18 -3 47 12 47 23 0 6 -6 5 -15 -2 -10 -9 -15 -9 -15 -1 0 6 4 11 9 11
21 0 41 34 41 68 0 51 -8 57 -65 56 -82 -3 -85 -3 -85 -19 0 -8 -7 -15 -16
-15 -8 0 -12 -5 -9 -10 3 -6 -1 -10 -9 -10 -9 0 -16 -6 -16 -14 0 -32 -25 -25
-135 39 -109 62 -117 65 -138 50 l-21 -15 24 0 c30 0 199 -94 222 -124 l17
-21 48 47 c54 53 127 85 149 67 26 -21 14 -53 -37 -105 -48 -48 -53 -51 -82
-43 -18 5 -38 7 -47 4 -8 -3 -85 37 -171 88 l-157 93 -44 -22 -44 -22 -68 43
c-63 40 -67 43 -45 51 13 4 38 6 56 5 25 -2 31 1 30 16 -1 12 6 19 22 21 30 5
52 -15 31 -28 -12 -8 -10 -10 8 -10 29 0 28 8 -5 42 -36 37 -18 35 57 -7 34
-19 66 -35 72 -35 19 0 -5 22 -43 39 -22 10 -35 22 -31 28 7 11 144 94 174
105 10 4 27 -3 45 -20 26 -24 27 -27 8 -30 -11 -2 -35 -15 -52 -29 -53 -39
-42 -104 24 -141 39 -21 151 -24 183 -4 34 21 60 53 60 75 0 9 7 17 16 17 9 0
12 -5 8 -12 -4 -6 -3 -8 4 -5 14 9 43 -3 36 -14 -3 -5 6 -9 20 -9 39 0 27 21
-27 47 -54 25 -180 140 -171 155 3 5 16 0 29 -12 15 -14 25 -18 30 -11 4 7 19
1 43 -16 l37 -28 -38 44 c-20 25 -37 48 -37 53 0 4 13 14 29 22 19 10 30 26
35 47 8 39 0 52 -10 15 -4 -19 -28 -39 -93 -77 -47 -29 -91 -58 -98 -66 -13
-17 -37 -8 -27 9 4 7 2 8 -4 4 -15 -9 -55 18 -58 39 -1 9 6 15 18 15 10 0 28
5 39 11 15 7 24 7 34 -1 11 -9 12 -7 8 9 -4 16 -1 19 18 14 15 -4 20 -3 15 5
-5 8 3 10 26 6 25 -4 29 -3 17 5 -28 18 -99 4 -148 -28 -25 -17 -79 -50 -120
-73 -40 -24 -99 -61 -130 -84 -31 -22 -84 -56 -118 -75 -35 -18 -63 -39 -63
-45 0 -7 36 -33 81 -59 75 -43 82 -45 103 -31 22 14 36 7 282 -136 364 -211
336 -198 413 -198 42 0 80 7 106 19 22 10 261 145 530 300 270 156 580 335
690 398 110 63 210 127 222 142 32 36 32 110 1 144 -36 39 -611 365 -665 377
-51 12 -108 6 -161 -16 -32 -13 -33 -13 -70 28 -20 23 -55 49 -77 59 -42 20
-51 21 -75 12z m523 -204 c12 -7 24 -15 27 -18 6 -8 26 -19 146 -82 114 -59
144 -78 144 -90 0 -18 -36 -8 -90 25 -30 18 -101 59 -157 90 -57 31 -103 64
-103 72 0 17 5 17 33 3z m514 -362 c-20 -36 -23 -38 -129 -96 -41 -22 -78 -38
-81 -34 -4 3 -7 -1 -7 -10 0 -9 -17 -28 -37 -42 -43 -29 -58 -32 -49 -9 4 10
1 14 -6 12 -7 -3 -15 -15 -18 -27 -6 -28 -81 -73 -88 -53 -3 11 -7 10 -21 -1
-9 -8 -36 -26 -61 -40 -515 -281 -965 -541 -965 -557 0 -29 -74 -39 -82 -12
-3 11 -21 23 -48 30 -48 13 -262 135 -246 140 5 2 19 -1 30 -7 11 -6 29 -11
41 -11 14 0 19 -4 14 -12 -5 -7 -2 -9 9 -5 19 7 130 -51 122 -64 -4 -5 2 -6
11 -2 11 4 15 2 11 -4 -10 -16 76 -26 120 -13 21 6 49 17 63 26 14 8 17 13 8
10 -28 -8 -21 2 12 19 17 9 36 13 42 9 7 -4 8 -3 4 4 -6 11 6 16 27 13 4 0 7
4 7 10 0 5 5 7 10 4 6 -3 10 -2 10 3 0 5 12 17 26 27 15 9 23 12 20 6 -5 -7
-1 -9 8 -5 9 3 16 12 16 20 0 8 5 14 11 14 5 0 7 -5 3 -11 -4 -7 1 -7 16 1 12
6 19 14 16 17 -10 10 36 37 64 38 15 0 24 6 22 14 -1 7 2 10 7 6 9 -5 54 17
71 35 3 3 41 24 85 47 44 24 79 48 77 54 -1 6 2 8 8 4 6 -3 43 13 83 37 39 24
84 49 99 57 15 8 25 18 22 23 -3 5 1 8 8 6 8 -2 64 25 124 59 60 34 144 81
186 105 153 86 307 179 319 194 20 25 24 5 6 -29z m-1850 -304 c4 -10 11 -22
17 -26 7 -5 4 -6 -7 -3 -10 3 -34 6 -53 6 -41 0 -44 12 -6 27 38 15 42 15 49
-4z m-25 -42 c12 6 18 6 18 -1 0 -5 11 -10 25 -10 14 0 25 -4 25 -10 0 -5 5
-10 11 -10 6 0 18 -8 27 -17 13 -12 14 -17 4 -21 -10 -3 -8 -8 5 -18 17 -13
17 -14 0 -25 -9 -5 -15 -14 -12 -20 4 -5 -3 -9 -14 -9 -10 0 -21 -5 -23 -12
-3 -7 -12 -9 -22 -5 -10 4 -14 12 -10 18 4 8 3 9 -4 5 -7 -4 -12 -14 -12 -22
0 -16 -2 -16 -24 -8 -9 3 -13 10 -10 15 3 5 -2 6 -10 3 -9 -3 -13 -10 -10 -15
3 -5 0 -9 -5 -9 -6 0 -11 7 -11 15 0 8 -7 15 -16 15 -8 0 -12 -4 -9 -10 3 -5
1 -10 -4 -10 -6 0 -11 9 -11 20 0 11 -7 20 -16 20 -8 0 -12 -4 -9 -10 3 -5 1
-10 -6 -10 -7 0 -9 8 -6 21 4 15 2 19 -9 15 -10 -4 -14 3 -14 24 0 20 5 30 15
30 9 0 12 6 8 16 -5 13 -2 15 15 9 16 -4 22 -2 22 8 0 10 7 13 19 10 10 -3 22
1 26 7 5 8 10 9 18 1 7 -7 16 -7 29 0z"/>
<path d="M1715 2098 c29 -29 60 -66 68 -83 9 -16 16 -25 17 -20 0 24 -64 118
-93 135 -50 31 -48 24 8 -32z"/>
<path d="M1762 2103 c28 -29 88 -147 88 -173 0 -12 2 -13 9 -1 10 16 -9 97
-33 132 -20 32 -63 69 -78 69 -6 0 0 -12 14 -27z"/>
<path d="M925 1979 c-96 -51 -127 -109 -101 -188 9 -29 14 -73 12 -114 -2 -36
1 -64 6 -61 7 5 12 -12 11 -43 -1 -20 22 -22 46 -4 21 16 22 21 11 41 -21 40
-40 122 -40 178 0 60 18 110 51 141 29 27 14 27 -29 1 -19 -12 -41 -38 -52
-63 -11 -23 -20 -36 -20 -29 0 30 35 84 69 108 39 26 86 30 156 14 24 -5 41
-5 43 0 2 5 14 5 29 -1 36 -13 39 -5 6 16 -43 28 -148 31 -198 4z"/>
<path d="M1806 1965 c3 -11 10 -45 14 -75 l7 -55 1 45 c1 25 -6 59 -14 75 -8
17 -11 21 -8 10z"/>
<path d="M1976 1936 c-4 -15 -21 -41 -39 -58 l-32 -30 31 16 c31 15 60 64 52
88 -3 7 -8 0 -12 -16z"/>
<path d="M1010 1930 c0 -5 6 -10 13 -10 31 0 196 -146 181 -159 -5 -4 -35 -29
-66 -55 -33 -27 -58 -57 -58 -67 0 -10 13 -33 29 -51 l28 -32 87 33 c47 19 86
36 86 39 0 3 -16 35 -37 71 -65 118 -135 188 -225 226 -22 9 -38 11 -38 5z
m226 -198 c11 -7 11 -63 -1 -81 -10 -17 -84 -9 -91 9 -3 9 8 27 30 47 37 35
44 37 62 25z m-96 -87 c7 -8 16 -13 20 -10 4 3 10 -4 13 -15 3 -11 1 -18 -4
-14 -5 3 -9 -2 -9 -10 0 -9 -5 -16 -12 -16 -20 0 -48 32 -48 57 0 26 21 31 40
8z"/>
<path d="M1203 1900 c19 -28 23 -55 6 -44 -7 4 6 -18 28 -48 68 -91 99 -163
129 -293 5 -26 7 -28 14 -10 7 19 7 19 14 -2 4 -13 5 -26 2 -31 -2 -4 -1 -14
5 -22 15 -25 11 86 -7 154 -27 106 -114 249 -183 301 l-25 19 17 -24z"/>
<path d="M490 1863 c-24 -9 -70 -55 -87 -86 -15 -30 -20 -97 -9 -116 4 -6 21
-18 38 -27 40 -21 80 -5 119 49 51 71 51 145 -1 172 -31 16 -36 17 -60 8z m0
-39 c-29 -25 -66 -82 -58 -90 7 -6 48 8 48 17 0 15 22 10 37 -8 12 -16 13 -15
7 11 -5 22 -4 28 7 24 8 -3 19 1 24 9 8 10 11 5 12 -18 2 -23 -1 -29 -12 -26
-7 3 -16 -1 -19 -9 -3 -9 -10 -13 -15 -10 -5 3 -12 -1 -15 -10 -4 -10 -14 -14
-26 -11 -13 3 -20 0 -20 -8 0 -8 -5 -17 -11 -21 -9 -5 -10 1 -5 20 4 18 3 25
-6 24 -7 -2 -16 -14 -19 -28 -6 -23 -7 -23 -8 7 -1 42 32 117 60 137 38 26 53
18 19 -10z"/>
<path d="M963 1843 c-18 -7 -27 -67 -14 -92 23 -42 71 -13 71 43 0 45 -21 64
-57 49z m26 -68 c-19 -31 -24 -34 -31 -20 -7 12 -3 26 14 50 32 47 46 21 17
-30z"/>
<path d="M1835 1817 c-9 -16 -28 -33 -41 -39 -21 -10 -24 -18 -24 -70 0 -32 9
-91 20 -130 28 -100 26 -115 -12 -138 -18 -11 -37 -18 -43 -17 -5 2 -17 -5
-26 -16 -15 -20 -16 -19 -72 16 -73 47 -80 61 -69 145 5 37 8 68 7 70 -4 4
-99 -108 -128 -153 -35 -52 -35 -66 0 -23 47 56 84 91 90 84 4 -3 7 -31 8 -61
1 -31 5 -58 9 -62 3 -3 6 1 6 10 0 24 7 21 41 -18 26 -30 37 -35 74 -35 24 0
48 6 54 14 6 8 26 20 44 27 69 28 72 50 28 171 -12 32 -21 81 -21 110 1 56 6
62 103 130 16 12 15 13 -7 13 -16 0 -30 -9 -41 -28z"/>
<path d="M718 1783 c-26 -30 -38 -60 -38 -96 0 -56 60 -92 105 -63 28 18 34
39 10 29 -9 -3 -22 2 -30 13 -13 18 -14 18 -15 2 0 -30 -30 -21 -30 8 0 19 4
25 15 20 8 -3 15 0 15 6 0 7 12 22 28 35 l27 22 -32 -8 c-17 -5 -33 -7 -36 -5
-4 5 -22 -35 -31 -71 -3 -11 -4 2 -2 29 4 54 35 90 69 80 9 -3 17 -1 17 5 0
18 -56 12 -72 -6z"/>
<path d="M1647 1695 c-32 -22 -37 -31 -37 -64 0 -39 11 -51 47 -51 13 0 15 10
11 55 -3 39 -1 55 8 55 6 0 14 7 18 15 8 21 -4 19 -47 -10z m7 -69 c-5 -29 -9
-34 -20 -26 -13 12 -9 36 10 56 16 17 18 10 10 -30z"/>
<path d="M2774 1601 c-12 -14 -39 -36 -60 -47 -34 -19 -141 -80 -469 -269 -49
-28 -109 -63 -132 -78 -24 -15 -45 -27 -47 -27 -3 0 -26 -13 -53 -29 -26 -16
-124 -73 -218 -126 -93 -54 -228 -132 -300 -174 -71 -43 -141 -83 -155 -89
-20 -10 -21 -12 -4 -9 11 3 171 91 355 197 184 106 498 287 699 403 353 203
417 244 409 264 -2 6 -14 -2 -25 -16z"/>
<path d="M1710 1545 c0 -33 5 -67 10 -75 7 -11 10 3 10 45 0 33 -5 67 -10 75
-7 11 -10 -3 -10 -45z"/>
<path d="M1337 1509 c7 -85 -1 -128 -33 -175 -15 -21 -19 -32 -9 -24 34 28 55
87 54 152 -1 35 -5 74 -9 88 -5 15 -6 -2 -3 -41z"/>
<path d="M580 1550 c0 -6 11 -15 25 -20 14 -5 25 -12 25 -15 0 -4 -4 -3 -10 0
-5 3 -10 1 -10 -4 0 -6 14 -11 32 -11 l32 0 -29 30 c-28 29 -65 40 -65 20z"/>
<path d="M480 1511 c-40 -19 -39 -30 5 -55 29 -17 37 -17 65 -6 21 9 28 16 21
23 -7 7 -16 5 -29 -6 -24 -21 -31 -21 -62 3 -23 18 -24 20 -4 20 11 0 25 5 32
12 9 9 21 7 51 -6 21 -10 45 -16 53 -13 7 3 4 6 -9 6 -12 1 -28 7 -35 14 -22
22 -53 25 -88 8z"/>
<path d="M350 1452 c0 -10 73 -52 89 -52 6 0 11 5 11 11 0 5 -4 7 -10 4 -14
-9 -50 13 -50 30 0 8 -9 15 -20 15 -11 0 -20 -4 -20 -8z"/>
<path d="M435 1439 c-13 -5 -15 -8 -5 -8 8 -1 26 -4 39 -8 17 -4 22 -2 19 7
-5 16 -26 20 -53 9z"/>
<path d="M1126 1389 c-45 -21 -55 -30 -42 -35 9 -4 28 -2 42 5 32 14 34 14 28
-3 -3 -8 1 -27 10 -44 11 -22 12 -32 3 -41 -8 -8 -6 -11 11 -11 19 0 22 5 21
43 0 23 -3 58 -7 78 l-7 36 -59 -28z"/>
<path d="M1306 1300 c-16 -17 -44 -32 -62 -36 -22 -4 -31 -10 -27 -20 4 -10
-3 -14 -24 -14 -17 0 -37 -8 -46 -18 -15 -16 -15 -19 -2 -19 8 0 15 4 15 8 0
4 14 10 31 14 17 4 32 12 35 19 3 7 19 13 36 13 18 0 34 5 36 11 2 7 9 12 15
12 17 0 41 40 30 51 -4 4 -21 -5 -37 -21z"/>
<path d="M452 1213 c9 -2 20 -13 23 -24 7 -21 49 -26 75 -9 11 7 6 8 -16 4
-34 -7 -57 12 -33 27 9 6 0 8 -26 8 -22 -1 -32 -3 -23 -6z"/>
<path d="M553 993 c-18 -9 -33 -21 -33 -26 0 -5 3 -7 8 -5 48 24 62 32 62 40
0 10 2 10 -37 -9z"/>
<path d="M765 973 c28 -29 401 -233 424 -232 24 1 23 2 -6 9 -17 4 -116 56
-220 115 -216 124 -212 122 -198 108z"/>
</g>
</svg>
